<svg xmlns="http://www.w3.org/2000/svg" xmlns:xlink="http://www.w3.org/1999/xlink" viewBox="0 0 309.75 159.16"><defs><style>.cls-1{fill:url(#linear-gradient);}.cls-2{fill:#c4d82e;fill-rule:evenodd;}.cls-3{fill:#fff;}.cls-4{fill:#231f20;}</style><linearGradient id="linear-gradient" x1="136.85" y1="78.55" x2="30.35" y2="195.62" gradientTransform="translate(-15.43 -50.19) rotate(-4.7)" gradientUnits="userSpaceOnUse"><stop offset="0" stop-color="#82c341"/><stop offset="0.21" stop-color="#82c341"/><stop offset="0.38" stop-color="#6cb840"/><stop offset="0.72" stop-color="#339d3f"/><stop offset="1" stop-color="#00853e"/></linearGradient></defs><g id="Layer_2" data-name="Layer 2"><g id="Layer_1-2" data-name="Layer 1"><path class="cls-1" d="M158,73.09A79.13,79.13,0,1,1,72.65.72,79.13,79.13,0,0,1,158,73.09Z"/><path class="cls-2" d="M159.3,142.9l2.5-3,.65.06a43.31,43.31,0,1,0-2.2,3l-.95-.09"/><path class="cls-3" d="M42.18,127.42a1.65,1.65,0,0,0,.38,0A1.6,1.6,0,0,0,44,126.6c.05-.1,5.34-10.22,13-11.55a1.6,1.6,0,0,0-.55-3.15c-4.45.77-8.12,3.8-10.75,6.76,3.42-7.43,11.47-9.8,11.91-9.93a1.6,1.6,0,0,0-.86-3.08c-.16,0-15.76,4.57-15.75,20.22a1.58,1.58,0,0,0,1.22,1.55"/><path class="cls-3" d="M140.13,137.9c-8-.5-15.8-.65-23.26-.55-.37-2.52-2.62-6.81-5.23-11.79-2-3.91-5.12-9.77-5.08-11.38,2.29-2.68,5.53-8.72,5.53-13.73,0-4,4.81-8.45,6-8.73a43.72,43.72,0,0,1,5.4-.55,36.86,36.86,0,0,0,6.21-.7c3-.85,3.87-6.59,4.08-9a1.6,1.6,0,0,0-1.2-1.7l-8.82-2.19-2.66-3.36a1.58,1.58,0,0,0-1.09-.6l-9.32-1a1.6,1.6,0,0,0-1.42.6L101.5,83a1.6,1.6,0,0,0-.23,1.6,1.62,1.62,0,0,0,1.29,1l7.91,1a1.62,1.62,0,0,0,1.39-.52l3.52-4A1.6,1.6,0,1,0,113,79.94l-3,3.33-4.25-.53,5.43-6.85,7.78.82L121.57,80a1.69,1.69,0,0,0,.87.56l8,2c-.36,2.37-1.07,4.57-1.6,4.88a38.35,38.35,0,0,1-5.55.59,44.72,44.72,0,0,0-5.93.63c-2.85.68-8.44,6.46-8.44,11.84a14.19,14.19,0,0,1-.81,4.32c-4.44-2.63-9.68-6.09-12.91-8.32L93.1,95l-.45-.34a7.88,7.88,0,0,0-1.19-.82l0,0a18.46,18.46,0,0,0,10.76-3.43,1.6,1.6,0,0,0-2-2.46S95.1,92,86.24,90.14L78,84.32a1.53,1.53,0,0,0-.52-.24c.32-2-1.32-4.78-3.72-8.87-3.24-5.54-7.68-13.12-6-18.08a1.6,1.6,0,1,0-3-1c-2.09,6.34,2.57,14.3,6.32,20.7,1.38,2.36,3.25,5.55,3.31,6.62a1.57,1.57,0,0,1-1.26.57c-1.55-.08-3.42-2.57-4.22-3.64-.16-.21-.29-.39-.41-.53s-.46-.57-.75-.91c-2.56-3.08-7.9-9.48-8.84-19.31S63.55,43.07,66,40.14c.27-.32.51-.61.69-.84,1.43-1.85,4.64-7.13,2.31-9.45-.68-.69-2-3.2-2-7.84,0-4.27,4.18-6.45,5.64-6.88a15.55,15.55,0,0,1,8,1.47c.74.44,1.83,2.36,2.85,9,.1.63.17,1.08.22,1.24a33,33,0,0,1-.55,5c-3.39.4-5.47,1.1-6.2,2.07-.91,1.23-.17,2.46.7,3.89a31,31,0,0,1,4.56,13.57c1.26,10.74,2.43,22.94,1.49,32a1.6,1.6,0,1,0,3.18.33c1-9.39-.21-21.8-1.49-32.71a34,34,0,0,0-5-14.85c-.09-.15-.19-.32-.29-.47a27.54,27.54,0,0,1,4.57-.78,1.61,1.61,0,0,0,1.43-1.32c.48-2.75,1-6.28.71-7.45,0-.17-.09-.52-.16-1-.77-5-1.83-9.79-4.37-11.32-3.15-1.89-8.78-2.3-10.51-1.79-3.19.93-7.94,4.35-7.94,10,0,5.15,1.42,8.5,2.79,10,.08.7-.76,3.16-2.45,5.34-.17.22-.39.48-.64.78-2.66,3.23-8.89,10.81-7.84,21.81,1,10.82,6.79,17.73,9.56,21.06.28.32.52.61.72.86l.35.46C67.52,84,69.84,87,72.87,87.21h.24a4.6,4.6,0,0,0,2.58-.8,1.55,1.55,0,0,0,.47.52l8.51,6h0l7.91,5.59c1.89,1.47,4.45,3.18,6.94,4.76L93.81,109a1.6,1.6,0,0,0,2.26,2.27l6.15-6.16.08-.09c1.88,1.15,3.52,2.11,4.55,2.72a21.19,21.19,0,0,1-2.84,4.46c-1.71,1.92,0,5.59,4.8,14.82,2,3.87,4.31,8.22,4.82,10.36-7.75.19-15.14.64-22.1,1.29.9-14.66,5.28-22,5.35-22.12a1.6,1.6,0,0,0-2.72-1.69c-.21.33-5,8.2-5.86,24.12q-4.14.44-8.06.93a.36.36,0,0,0,0-.07c-.74-1.33-1.81-7.1,4.17-31.9.41-1.71.71-2.94-.8-3.35a1.62,1.62,0,0,0-2,1.33,1.78,1.78,0,0,0-.08.45c0,.22-.11.49-.19.82C77,125,75.58,135.86,77,140.38c-3.42.47-6.71,1-9.83,1.51.68-4.64,2.82-11.64,5.85-15.32s5-12.72,6-27.72l0-.71a1.6,1.6,0,0,0-3.19-.23l0,.73c-1.18,17.57-3.51,23.78-5.25,25.9-3.68,4.46-6.1,12.81-6.67,17.92q-2.79.51-5.38,1c-.67-4.48,1.18-13,2.56-19.32a85.71,85.71,0,0,0,1.62-8.62c.53-5.84,1.93-30.25,2-31.28a1.6,1.6,0,1,0-3.2-.18c0,.25-1.45,25.38-2,31.17-.17,1.8-.82,4.78-1.57,8.23-1.51,7-3.37,15.54-2.56,20.65C49,145.46,43.61,146.81,39.43,148c1.93,1.14,3,1.71,4.08,2.23a315.92,315.92,0,0,1,96.38-9.09c.18,0,10,.9,20.36,1.9.42-.5,1.78-2.32,2.21-3-10.72-1.05-21.53-2-22.33-2.09"/><path class="cls-4" d="M197,142a6.47,6.47,0,0,1,2.9.6,3.76,3.76,0,0,1-.92,2.26,4.12,4.12,0,0,0-1.58-.26c-.75,0-1.1.33-1.1,1.14v1.19h2.2a4.41,4.41,0,0,1,.15,1.21,4.2,4.2,0,0,1-.15,1.2h-2.2v9a6.73,6.73,0,0,1-1.69.17,6.54,6.54,0,0,1-1.69-.17v-9h-1.41a7.87,7.87,0,0,1-.13-1.25,4.68,4.68,0,0,1,.13-1.16H193v-1.32C193,143.34,194,142,197,142"/><path class="cls-4" d="M204.66,146.59c3.25,0,5.3,1.65,5.3,6s-2.07,6-5.3,6-5.32-1.67-5.32-6,2.09-6,5.32-6m0,2.57c-1.14,0-1.8.68-1.8,3.45s.66,3.49,1.8,3.49,1.78-.72,1.78-3.49-.66-3.45-1.78-3.45"/><path class="cls-4" d="M217.5,146.59a3.41,3.41,0,0,1,1.93.62,3.84,3.84,0,0,1-1.43,2.72,1.75,1.75,0,0,0-1.14-.44,2.28,2.28,0,0,0-1.78,1v7.76a7.23,7.23,0,0,1-1.69.17,6.67,6.67,0,0,1-1.7-.17V147a6.67,6.67,0,0,1,1.7-.17,4.12,4.12,0,0,1,1.47.17l.09,1.17a3,3,0,0,1,2.55-1.54"/><path class="cls-4" d="M227.89,154.19c0,1.52.62,1.87,1.78,1.87a5,5,0,0,0,.88-.09,3.19,3.19,0,0,1,.26,1.34,3.49,3.49,0,0,1-.15,1.1,7.36,7.36,0,0,1-2,.24c-3,0-4.17-1.31-4.17-4.37v-5h-1.59a4.17,4.17,0,0,1-.15-1.18,3.93,3.93,0,0,1,.15-1.23h1.59v-2a6.43,6.43,0,0,1,3.38-.55v2.51h2.37a3.87,3.87,0,0,1,.16,1.21,4.33,4.33,0,0,1-.16,1.2h-2.37Z"/><path class="cls-4" d="M241.76,158.26a6.67,6.67,0,0,1-1.7.17,6.35,6.35,0,0,1-1.69-.17v-7.69c0-.81-.39-1.32-1.4-1.32a2.29,2.29,0,0,0-1.52.61v8.4a6.73,6.73,0,0,1-1.69.17,6.35,6.35,0,0,1-1.69-.17V142.13a6,6,0,0,1,1.69-.18,6.37,6.37,0,0,1,1.69.18v5.49a4.24,4.24,0,0,1,2.94-1,3,3,0,0,1,3.37,3.27Z"/><path class="cls-4" d="M246.92,153.62c.22,1.8,1.06,2.27,2.38,2.27a5.22,5.22,0,0,0,2.32-.53,3.51,3.51,0,0,1,1,2.31,6.9,6.9,0,0,1-3.91,1c-3.61,0-5.3-1.89-5.3-6s2-6.09,5.14-6.09c2.88,0,4.53,1.47,4.53,4.61a11,11,0,0,1-.24,2.42Zm1.74-4.57c-.9,0-1.58.64-1.76,2.46H250c0-.22.05-.44.05-.68,0-1-.38-1.78-1.43-1.78"/><path class="cls-4" d="M262.28,147.71a3.48,3.48,0,0,1,2.82-1.12c2.46,0,4.1,1.52,4.1,6s-1.64,6-4.1,6a3.53,3.53,0,0,1-2.82-1.09v.7a7.22,7.22,0,0,1-1.71.17,6.64,6.64,0,0,1-1.67-.17V142.13a6.64,6.64,0,0,1,1.67-.17,7.22,7.22,0,0,1,1.71.17Zm1.61,1.52c-1,0-1.59.79-1.61,2V154c0,1.21.64,2,1.61,2,1.16,0,1.75-.64,1.75-3.39s-.59-3.4-1.75-3.4"/><path class="cls-4" d="M274.41,158.26a6.73,6.73,0,0,1-1.69.17,6.35,6.35,0,0,1-1.69-.17V142.13a6,6,0,0,1,1.69-.18,6.37,6.37,0,0,1,1.69.18Z"/><path class="cls-4" d="M280,144.66a7,7,0,0,1-1.69.17,6.39,6.39,0,0,1-1.7-.17v-2.75a6.21,6.21,0,0,1,1.7-.17,7,7,0,0,1,1.69.17Zm0,13.6a7,7,0,0,1-1.69.17,6.39,6.39,0,0,1-1.7-.17V147a6.21,6.21,0,0,1,1.7-.17A7,7,0,0,1,280,147Z"/><path class="cls-4" d="M291.88,158.26a6.54,6.54,0,0,1-1.69.17,6.35,6.35,0,0,1-1.69-.17v-7.69c0-.81-.4-1.32-1.41-1.32a2.29,2.29,0,0,0-1.51.61v8.4a6.83,6.83,0,0,1-1.69.17,6.39,6.39,0,0,1-1.7-.17V147a6.06,6.06,0,0,1,1.7-.18,6.47,6.47,0,0,1,1.69.18v.66a4.22,4.22,0,0,1,2.94-1.06,3,3,0,0,1,3.36,3.3Z"/><path class="cls-4" d="M302.24,142a6.74,6.74,0,0,1,1.67.17v16.13a6.32,6.32,0,0,1-1.52.17,6.4,6.4,0,0,1-1.54-.17l-.15-.9a3.48,3.48,0,0,1-3,1.29c-2.46,0-4.11-1.51-4.11-6s1.56-6.07,4.11-6.07a3.43,3.43,0,0,1,2.79,1.12v-5.58a7.37,7.37,0,0,1,1.72-.17m-3.3,7.27c-1.19,0-1.78.64-1.78,3.43s.59,3.36,1.78,3.36c1,0,1.56-.79,1.58-1.85v-3.12c0-1.05-.61-1.82-1.58-1.82"/><path class="cls-4" d="M192.26,2.52a22.19,22.19,0,0,1,4.56-.43,23.15,23.15,0,0,1,4.66.43V36.57a23,23,0,0,1-4.61.44,20.25,20.25,0,0,1-4.61-.44Z"/><path class="cls-4" d="M220,10.72a7.49,7.49,0,0,1,4.27,1.36A9.62,9.62,0,0,1,220.59,19a3.39,3.39,0,0,0-2.28-.88,5,5,0,0,0-3.64,1.9V36.62a21.34,21.34,0,0,1-4.36.39,20.58,20.58,0,0,1-4.42-.39V11.55a20.58,20.58,0,0,1,4.42-.39,19.17,19.17,0,0,1,4.36.39v2.52c1.6-2.28,3.5-3.35,5.29-3.35"/><path class="cls-4" d="M234.42,7.91a21.22,21.22,0,0,1-4.42.38,20.47,20.47,0,0,1-4.41-.38V.39A19.42,19.42,0,0,1,230,0a20.7,20.7,0,0,1,4.42.39Zm0,28.71A20.7,20.7,0,0,1,230,37a20,20,0,0,1-4.41-.39V11.55a19.42,19.42,0,0,1,4.41-.39,20.7,20.7,0,0,1,4.42.39Z"/><path class="cls-4" d="M247.66,10.67c5.58,0,8.58,1.55,8.58,1.55a7.28,7.28,0,0,1-1.84,5.63,23.72,23.72,0,0,0-5.82-.78c-2.28,0-3.06.64-3.06,1.61,0,1.35,2.86,1.6,5.78,2.62s5.91,2.95,5.91,7.66c0,5.29-3.15,8.54-10.52,8.54a20.33,20.33,0,0,1-9.46-2,7.87,7.87,0,0,1,1.94-5.63,21.84,21.84,0,0,0,6.4,1.07c2.48,0,3.35-.53,3.35-1.6,0-1.36-2.52-1.7-5.24-2.62-3-1-6.21-2.77-6.21-7.67,0-5.23,3.25-8.34,10.19-8.34"/><path class="cls-4" d="M282.29,36.62a19.42,19.42,0,0,1-4.41.39,19,19,0,0,1-4.42-.39V19.74a2.07,2.07,0,0,0-2.33-2.37,4,4,0,0,0-2.47.92V36.62a19.77,19.77,0,0,1-4.37.39,20,20,0,0,1-4.41-.39V1a19.42,19.42,0,0,1,4.41-.39,19.77,19.77,0,0,1,4.37.39V13A9.38,9.38,0,0,1,275,10.67c4.9,0,7.28,2.91,7.28,7.18Z"/><path class="cls-4" d="M207.74,43.49c6.89,0,10.43,2.19,10.43,2.19a9.38,9.38,0,0,1-2.53,6.2,21,21,0,0,0-6.88-1.31c-4.95,0-8.2,2.53-8.2,10.92s2.91,10.72,7.86,10.72c.58,0,1.55,0,1.55,0V64.93h-4.46a9.83,9.83,0,0,1-.49-3.39,9.74,9.74,0,0,1,.49-3.45h13.14V77.2s-3.78,2.19-10.91,2.19c-10.72,0-16.69-6.26-16.69-18s6-17.95,16.69-17.95"/><path class="cls-4" d="M222.24,53.44a25.19,25.19,0,0,1,8.83,0V70.37a2.05,2.05,0,0,0,2.33,2.32,4,4,0,0,0,2.47-1V53.44a24.9,24.9,0,0,1,8.78,0V78.52a19.91,19.91,0,0,1-4.41.38,20.27,20.27,0,0,1-4.37-.38V77.11a9.38,9.38,0,0,1-6.35,2.28c-4.9,0-7.28-2.91-7.28-7.18Z"/><path class="cls-4" d="M257.31,49.8a20.53,20.53,0,0,1-4.41.39,20,20,0,0,1-4.42-.39V42.28a19.58,19.58,0,0,1,4.42-.39,20.53,20.53,0,0,1,4.41.39Zm0,28.72a21.05,21.05,0,0,1-4.41.38,20.52,20.52,0,0,1-4.42-.38V53.44a19.58,19.58,0,0,1,4.42-.39,20.53,20.53,0,0,1,4.41.39Z"/><path class="cls-4" d="M279.77,42.52a21.34,21.34,0,0,1,4.36.39V78.52a20.1,20.1,0,0,1-4.12.38,16.63,16.63,0,0,1-3.93-.38l-.38-2a7.4,7.4,0,0,1-6.21,2.82c-5.44,0-9.17-3.35-9.17-13.24s3.39-13.59,9.17-13.59A7.54,7.54,0,0,1,275.36,55V43a19.24,19.24,0,0,1,4.41-.44m-7.08,16.74c-2.23,0-3.06,1.4-3.06,6.89,0,5.14.83,6.54,3.06,6.54,1.69,0,2.52-1.31,2.67-3V62.36c-.2-1.74-1-3.1-2.67-3.1"/><path class="cls-4" d="M296.31,68.47c.53,3.06,2,3.88,4.51,3.88a10.23,10.23,0,0,0,4.75-1.16A8.93,8.93,0,0,1,308.29,77s-3,2.38-9,2.38c-8,0-12.23-4.12-12.23-13.39s4.47-13.44,11.89-13.44c6.69,0,10.82,3.4,10.82,10.38a25.87,25.87,0,0,1-.54,5.53Zm2.86-9.79c-1.5,0-2.67,1.16-3,4.8h5.14a14.25,14.25,0,0,0,0-1.46c0-1.94-.58-3.34-2.23-3.34"/><path class="cls-4" d="M204.88,85.87c10.18,0,15.57,4.9,15.57,17.46s-5.39,17.47-15.57,17.47H192.31V85.87Zm-.1,27.94c4,0,6-1.94,6-10.48s-1.94-10.48-6-10.48h-3.25v21Z"/><path class="cls-4" d="M235.19,94.46c7.42,0,12.23,3.68,12.23,13.43s-4.85,13.39-12.23,13.39-12.32-3.69-12.32-13.39,4.9-13.43,12.32-13.43m0,6.64c-2.08,0-3.1,1.41-3.1,6.79s1,6.79,3.1,6.79,3-1.45,3-6.79-1-6.79-3-6.79"/><path class="cls-4" d="M274.05,94.46a9,9,0,0,1,0,6.25l-3.11-.53a9.36,9.36,0,0,1,.58,3.4c0,5.57-3.68,9.07-11,9.07H259.4a2.13,2.13,0,0,0-.34,1.65c.82,3.15,15.13-.93,15.13,9.41,0,5.67-5.14,9.41-14,9.41-8,0-11.88-2.38-11.88-6.79,0-3.35,2.52-5.24,4.17-6.12a4.79,4.79,0,0,1-1-3.15,7.17,7.17,0,0,1,3-5.48,8.19,8.19,0,0,1-4.9-8c0-5.63,3.78-9.12,11-9.12A13.89,13.89,0,0,1,267,95.77ZM256.88,122.4a3.76,3.76,0,0,0-.73,2.18c0,1.75,1.11,2.86,4.07,2.86,3.88,0,5.58-1.07,5.58-2.62,0-2.13-4.9-1.6-8.92-2.42m3.63-22.8c-1.6,0-2.47,1.11-2.47,4s.87,3.88,2.47,3.88,2.48-1,2.48-3.88-.93-4-2.48-4"/><path class="cls-4" d="M286.08,94.46c5.57,0,8.58,1.55,8.58,1.55a7.32,7.32,0,0,1-1.84,5.63,23.72,23.72,0,0,0-5.82-.78c-2.28,0-3.06.63-3.06,1.6,0,1.36,2.86,1.6,5.77,2.62s5.92,3,5.92,7.66c0,5.29-3.15,8.54-10.53,8.54a20.31,20.31,0,0,1-9.45-2,7.84,7.84,0,0,1,1.94-5.62,22,22,0,0,0,6.4,1.06c2.47,0,3.35-.53,3.35-1.6,0-1.36-2.53-1.69-5.24-2.62-3-1-6.21-2.76-6.21-7.66,0-5.24,3.25-8.34,10.19-8.34"/></g></g></svg>